# xmcd
# Track frame offsets:
# 150
# 15107
# 39970
# 57410
# 74982
# 86377
# 98355
# 114837
# 131020
# 141715
#
# Disc length: 2204 seconds
# Revision: 0
# Processed by: cddbd v1.5.2PL0 Copyright (c) Steve Scherf et al.
# Submitted via: VisiTrax 2.9.5.181 - For more info visit www.synapsa.com
#
DISCID=80089a0a
DTITLE=Dave Chastain and the Blues Rockers - Something for the Pain
DYEAR=1992
DGENRE=Blues
TTITLE0=Hey Baby
TTITLE1=Something for the Pain
TTITLE2=Found Somebody
TTITLE3=The way You Use to Do
TTITLE4=You got no Right
TTITLE5=She's Gone
TTITLE6=For Your Love
TTITLE7=Two Hearts
TTITLE8=Son of a Guitar Man
TTITLE9=Hey Joe
EXTD=
EXTT0=
EXTT1=
EXTT2=
EXTT3=
EXTT4=
EXTT5=
EXTT6=
EXTT7=
EXTT8=
EXTT9=
PLAYORDER=
